<?xml version="1.0" encoding="UTF-8" standalone="no"?><svg xmlns="http://www.w3.org/2000/svg" xmlns:xlink="http://www.w3.org/1999/xlink" contentScriptType="application/ecmascript" contentStyleType="text/css" height="400px" preserveAspectRatio="none" style="width:998px;height:400px;" version="1.1" viewBox="0 0 998 400" width="998px" zoomAndPan="magnify"><defs><filter height="300%" id="f17o9bcy14lssc" width="300%" x="-1" y="-1"><feGaussianBlur result="blurOut" stdDeviation="2.0"/><feColorMatrix in="blurOut" result="blurOut2" type="matrix" values="0 0 0 0 0 0 0 0 0 0 0 0 0 0 0 0 0 0 .4 0"/><feOffset dx="4.0" dy="4.0" in="blurOut2" result="blurOut3"/><feBlend in="SourceGraphic" in2="blurOut3" mode="normal"/></filter></defs><g><rect fill="#FAEBD7" height="375.877" style="stroke: #FAEBD7; stroke-width: 1.0;" width="370" x="10" y="12.4551"/><line style="stroke: #A80036; stroke-width: 1.5;" x1="138.5" x2="373" y1="37.6406" y2="37.6406"/><ellipse cx="138.5" cy="64.2246" fill="#FEFECE" filter="url(#f17o9bcy14lssc)" rx="10" ry="10" style="stroke: #A80036; stroke-width: 1.5;"/><path d="M134.9844,68.2246 L138.2813,59.6309 L139.5,59.6309 L143.0156,68.2246 L141.7344,68.2246 L140.7188,65.6152 L137.1406,65.6152 L136.1875,68.2246 L134.9844,68.2246 Z M137.4688,64.6934 L140.375,64.6934 L139.4844,62.3184 Q139.0625,61.2402 138.875,60.5371 Q138.7031,61.3652 138.4063,62.1777 L137.4688,64.6934 Z "/><path d="M96.5,95.8086 L91.5,113.3555 L96.5,130.9023 M180.5,95.8086 L185.5,113.3555 L180.5,130.9023 " fill="#FEFECE" filter="url(#f17o9bcy14lssc)" style="stroke: #A80036; stroke-width: 1.5;"/><text fill="#000000" font-family="sans-serif" font-size="12" lengthAdjust="spacingAndGlyphs" textLength="71" x="104.5" y="118.2656">given (x y dlv)</text><rect fill="#000000" filter="url(#f17o9bcy14lssc)" height="6" rx="2.5" ry="2.5" style="stroke: #000000; stroke-width: 1.0;" width="237" x="20" y="165.9023"/><polygon fill="#FEFECE" filter="url(#f17o9bcy14lssc)" points="32,191.9023,79,191.9023,89,209.7363,79,227.5703,32,227.5703" style="stroke: #A80036; stroke-width: 1.5;"/><text fill="#000000" font-family="sans-serif" font-size="12" lengthAdjust="spacingAndGlyphs" textLength="3" x="42" y="214.9336">[</text><text fill="#000000" font-family="monospace" font-size="12" lengthAdjust="spacingAndGlyphs" textLength="21" x="45" y="213.9668">C-n</text><text fill="#000000" font-family="sans-serif" font-size="12" lengthAdjust="spacingAndGlyphs" textLength="3" x="66" y="214.9336">]</text><rect fill="#FEFECE" filter="url(#f17o9bcy14lssc)" height="35.668" rx="12.5" ry="12.5" style="stroke: #A80036; stroke-width: 1.5;" width="48" x="107" y="191.9023"/><text fill="#000000" font-family="monospace" font-size="12" lengthAdjust="spacingAndGlyphs" textLength="28" x="117" y="213.9668">draw</text><rect fill="#FEFECE" filter="url(#f17o9bcy14lssc)" height="35.668" rx="12.5" ry="12.5" style="stroke: #A80036; stroke-width: 1.5;" width="62" x="183" y="191.9023"/><text fill="#000000" font-family="monospace" font-size="12" lengthAdjust="spacingAndGlyphs" textLength="42" x="193" y="213.9668">redraw</text><rect fill="#000000" filter="url(#f17o9bcy14lssc)" height="6" rx="2.5" ry="2.5" style="stroke: #000000; stroke-width: 1.0;" width="237" x="20" y="247.5703"/><rect fill="#FEFECE" filter="url(#f17o9bcy14lssc)" height="35.0938" rx="12.5" ry="12.5" style="stroke: #A80036; stroke-width: 1.5;" width="77" x="100" y="288.5703"/><text fill="#000000" font-family="sans-serif" font-size="12" lengthAdjust="spacingAndGlyphs" textLength="57" x="110" y="311.0273">enque call</text><ellipse cx="138.5" cy="355.248" fill="#FEFECE" filter="url(#f17o9bcy14lssc)" rx="10" ry="10" style="stroke: #A80036; stroke-width: 1.5;"/><path d="M137.2656,359.748 L136.2813,359.748 L136.2813,351.1543 L137.3438,351.1543 L137.3438,354.2168 Q138.0156,353.3887 139.0469,353.3887 Q139.625,353.3887 140.1328,353.6152 Q140.6406,353.8418 140.9766,354.2637 Q141.3125,354.6855 141.5,355.2793 Q141.6875,355.873 141.6875,356.5449 Q141.6875,358.1387 140.8906,359.0137 Q140.0938,359.8887 139,359.8887 Q137.8906,359.8887 137.2656,358.9668 L137.2656,359.748 Z M137.25,356.5918 Q137.25,357.7012 137.5625,358.2012 Q138.0625,359.0137 138.9063,359.0137 Q139.5938,359.0137 140.1016,358.4199 Q140.6094,357.8262 140.6094,356.623 Q140.6094,355.4043 140.125,354.8262 Q139.6406,354.248 138.9531,354.248 Q138.2656,354.248 137.7578,354.8496 Q137.25,355.4512 137.25,356.5918 Z "/><rect fill="#ADD8E6" height="375.877" style="stroke: #ADD8E6; stroke-width: 1.0;" width="202" x="380" y="12.4551"/><ellipse cx="487.5" cy="62.6406" fill="#FEFECE" filter="url(#f17o9bcy14lssc)" rx="10" ry="10" style="stroke: #A80036; stroke-width: 1.5;"/><path d="M486.2656,67.1406 L485.2813,67.1406 L485.2813,58.5469 L486.3438,58.5469 L486.3438,61.6094 Q487.0156,60.7813 488.0469,60.7813 Q488.625,60.7813 489.1328,61.0078 Q489.6406,61.2344 489.9766,61.6563 Q490.3125,62.0781 490.5,62.6719 Q490.6875,63.2656 490.6875,63.9375 Q490.6875,65.5313 489.8906,66.4063 Q489.0938,67.2813 488,67.2813 Q486.8906,67.2813 486.2656,66.3594 L486.2656,67.1406 Z M486.25,63.9844 Q486.25,65.0938 486.5625,65.5938 Q487.0625,66.4063 487.9063,66.4063 Q488.5938,66.4063 489.1016,65.8125 Q489.6094,65.2188 489.6094,64.0156 Q489.6094,62.7969 489.125,62.2188 Q488.6406,61.6406 487.9531,61.6406 Q487.2656,61.6406 486.7578,62.2422 Q486.25,62.8438 486.25,63.9844 Z "/><rect fill="#000000" filter="url(#f17o9bcy14lssc)" height="6" rx="2.5" ry="2.5" style="stroke: #000000; stroke-width: 1.0;" width="183" x="390" y="94.2246"/><rect fill="#FEFECE" filter="url(#f17o9bcy14lssc)" height="35.0938" rx="12.5" ry="12.5" style="stroke: #A80036; stroke-width: 1.5;" width="97" x="413" y="120.2246"/><text fill="#000000" font-family="sans-serif" font-size="12" lengthAdjust="spacingAndGlyphs" textLength="77" x="423" y="142.6816">evaluate rules</text><rect fill="#FEFECE" filter="url(#f17o9bcy14lssc)" height="35.0938" rx="12.5" ry="12.5" style="stroke: #A80036; stroke-width: 1.5;" width="113" x="405" y="239.2363"/><text fill="#000000" font-family="sans-serif" font-size="12" lengthAdjust="spacingAndGlyphs" textLength="93" x="415" y="261.6934">select draw code</text><polygon fill="#FEFECE" filter="url(#f17o9bcy14lssc)" points="414,190.3184,509,190.3184,521,202.3184,509,214.3184,414,214.3184,402,202.3184,414,190.3184" style="stroke: #A80036; stroke-width: 1.5;"/><text fill="#000000" font-family="sans-serif" font-size="11" lengthAdjust="spacingAndGlyphs" textLength="10" x="465.5" y="225.7373">nil</text><text fill="#000000" font-family="sans-serif" font-size="11" lengthAdjust="spacingAndGlyphs" textLength="95" x="414" y="206.8193">properties-changed</text><text fill="#000000" font-family="sans-serif" font-size="11" lengthAdjust="spacingAndGlyphs" textLength="3" x="521" y="199.9014">t</text><ellipse cx="551" cy="202.3184" fill="#FEFECE" filter="url(#f17o9bcy14lssc)" rx="10" ry="10" style="stroke: #A80036; stroke-width: 1.5;"/><path d="M547.4844,206.3184 L550.7813,197.7246 L552,197.7246 L555.5156,206.3184 L554.2344,206.3184 L553.2188,203.709 L549.6406,203.709 L548.6875,206.3184 L547.4844,206.3184 Z M549.9688,202.7871 L552.875,202.7871 L551.9844,200.4121 Q551.5625,199.334 551.375,198.6309 Q551.2031,199.459 550.9063,200.2715 L549.9688,202.7871 Z "/><rect fill="#000000" filter="url(#f17o9bcy14lssc)" height="6" rx="2.5" ry="2.5" style="stroke: #000000; stroke-width: 1.0;" width="183" x="390" y="319.248"/><ellipse cx="487.5" cy="356.832" fill="#FEFECE" filter="url(#f17o9bcy14lssc)" rx="10" ry="10" style="stroke: #A80036; stroke-width: 1.5;"/><path d="M489.3594,358.0508 L490.3906,358.1914 Q490.2188,359.2539 489.5156,359.8633 Q488.8125,360.4727 487.7969,360.4727 Q486.5156,360.4727 485.7422,359.6367 Q484.9688,358.8008 484.9688,357.2383 Q484.9688,356.2383 485.3047,355.4805 Q485.6406,354.7227 486.3203,354.3477 Q487,353.9727 487.8125,353.9727 Q488.8125,353.9727 489.4609,354.4805 Q490.1094,354.9883 490.2969,355.9414 L489.2656,356.0977 Q489.125,355.4727 488.75,355.1523 Q488.375,354.832 487.8438,354.832 Q487.0469,354.832 486.5469,355.4023 Q486.0469,355.9727 486.0469,357.207 Q486.0469,358.4727 486.5313,359.0352 Q487.0156,359.5977 487.7813,359.5977 Q488.4063,359.5977 488.8203,359.2227 Q489.2344,358.8477 489.3594,358.0508 Z "/><rect fill="#ADD8E6" height="375.877" style="stroke: #ADD8E6; stroke-width: 1.0;" width="134" x="582" y="12.4551"/><ellipse cx="649.5" cy="147.1895" fill="#FEFECE" filter="url(#f17o9bcy14lssc)" rx="10" ry="10" style="stroke: #A80036; stroke-width: 1.5;"/><path d="M651.3594,148.4082 L652.3906,148.5488 Q652.2188,149.6113 651.5156,150.2207 Q650.8125,150.8301 649.7969,150.8301 Q648.5156,150.8301 647.7422,149.9941 Q646.9688,149.1582 646.9688,147.5957 Q646.9688,146.5957 647.3047,145.8379 Q647.6406,145.0801 648.3203,144.7051 Q649,144.3301 649.8125,144.3301 Q650.8125,144.3301 651.4609,144.8379 Q652.1094,145.3457 652.2969,146.2988 L651.2656,146.4551 Q651.125,145.8301 650.75,145.5098 Q650.375,145.1895 649.8438,145.1895 Q649.0469,145.1895 648.5469,145.7598 Q648.0469,146.3301 648.0469,147.5645 Q648.0469,148.8301 648.5313,149.3926 Q649.0156,149.9551 649.7813,149.9551 Q650.4063,149.9551 650.8203,149.5801 Q651.2344,149.2051 651.3594,148.4082 Z "/><rect fill="#FEFECE" filter="url(#f17o9bcy14lssc)" height="35.0938" rx="12.5" ry="12.5" style="stroke: #A80036; stroke-width: 1.5;" width="111" x="594" y="192.1895"/><text fill="#000000" font-family="sans-serif" font-size="12" lengthAdjust="spacingAndGlyphs" textLength="91" x="604" y="214.6465">enque response</text><ellipse cx="649.5" cy="272.2832" fill="#FEFECE" filter="url(#f17o9bcy14lssc)" rx="10" ry="10" style="stroke: #A80036; stroke-width: 1.5;"/><path d="M646.9219,276.7832 L646.9219,268.1895 L649.8906,268.1895 Q650.8906,268.1895 651.4219,268.3145 Q652.1563,268.4863 652.6719,268.9238 Q653.3594,269.502 653.6953,270.4004 Q654.0313,271.2988 654.0313,272.4395 Q654.0313,273.4238 653.8047,274.1738 Q653.5781,274.9238 653.2188,275.4238 Q652.8594,275.9238 652.4297,276.2051 Q652,276.4863 651.4063,276.6348 Q650.8125,276.7832 650.0313,276.7832 L646.9219,276.7832 Z M648.0625,275.7676 L649.8906,275.7676 Q650.75,275.7676 651.2344,275.6113 Q651.7188,275.4551 652,275.1582 Q652.4063,274.7676 652.6328,274.0801 Q652.8594,273.3926 652.8594,272.4238 Q652.8594,271.0801 652.4141,270.3535 Q651.9688,269.627 651.3438,269.377 Q650.875,269.2051 649.875,269.2051 L648.0625,269.2051 L648.0625,275.7676 Z "/><rect fill="#FAEBD7" height="375.877" style="stroke: #FAEBD7; stroke-width: 1.0;" width="270.25" x="716" y="12.4551"/><ellipse cx="868.25" cy="148.6895" fill="#FEFECE" filter="url(#f17o9bcy14lssc)" rx="10" ry="10" style="stroke: #A80036; stroke-width: 1.5;"/><path d="M865.6719,153.1895 L865.6719,144.5957 L868.6406,144.5957 Q869.6406,144.5957 870.1719,144.7207 Q870.9063,144.8926 871.4219,145.3301 Q872.1094,145.9082 872.4453,146.8066 Q872.7813,147.7051 872.7813,148.8457 Q872.7813,149.8301 872.5547,150.5801 Q872.3281,151.3301 871.9688,151.8301 Q871.6094,152.3301 871.1797,152.6113 Q870.75,152.8926 870.1563,153.041 Q869.5625,153.1895 868.7813,153.1895 L865.6719,153.1895 Z M866.8125,152.1738 L868.6406,152.1738 Q869.5,152.1738 869.9844,152.0176 Q870.4688,151.8613 870.75,151.5645 Q871.1563,151.1738 871.3828,150.4863 Q871.6094,149.7988 871.6094,148.8301 Q871.6094,147.4863 871.1641,146.7598 Q870.7188,146.0332 870.0938,145.7832 Q869.625,145.6113 868.625,145.6113 L866.8125,145.6113 L866.8125,152.1738 Z "/><rect fill="#000000" filter="url(#f17o9bcy14lssc)" height="6" rx="2.5" ry="2.5" style="stroke: #000000; stroke-width: 1.0;" width="222" x="754.25" y="193.6895"/><rect fill="#FEFECE" filter="url(#f17o9bcy14lssc)" height="35.0938" rx="12.5" ry="12.5" style="stroke: #A80036; stroke-width: 1.5;" width="80" x="768.25" y="219.6895"/><text fill="#000000" font-family="sans-serif" font-size="12" lengthAdjust="spacingAndGlyphs" textLength="60" x="778.25" y="242.1465">tend cache</text><rect fill="#FEFECE" filter="url(#f17o9bcy14lssc)" height="35.0938" rx="12.5" ry="12.5" style="stroke: #A80036; stroke-width: 1.5;" width="80" x="868.25" y="219.6895"/><text fill="#000000" font-family="sans-serif" font-size="12" lengthAdjust="spacingAndGlyphs" textLength="60" x="878.25" y="242.1465">finish draw</text><rect fill="#000000" filter="url(#f17o9bcy14lssc)" height="6" rx="2.5" ry="2.5" style="stroke: #000000; stroke-width: 1.0;" width="222" x="754.25" y="274.7832"/><line style="stroke: #A80036; stroke-width: 1.5;" x1="723" x2="868.25" y1="386.832" y2="386.832"/><line style="stroke: #A80036; stroke-width: 1.5;" x1="138.5" x2="138.5" y1="74.2246" y2="95.8086"/><polygon fill="#A80036" points="134.5,85.8086,138.5,95.8086,142.5,85.8086,138.5,89.8086" style="stroke: #A80036; stroke-width: 1.0;"/><line style="stroke: #A80036; stroke-width: 1.5;" x1="55.5" x2="55.5" y1="171.9023" y2="191.9023"/><polygon fill="#A80036" points="51.5,181.9023,55.5,191.9023,59.5,181.9023,55.5,185.9023" style="stroke: #A80036; stroke-width: 1.0;"/><line style="stroke: #A80036; stroke-width: 1.5;" x1="131" x2="131" y1="171.9023" y2="191.9023"/><polygon fill="#A80036" points="127,181.9023,131,191.9023,135,181.9023,131,185.9023" style="stroke: #A80036; stroke-width: 1.0;"/><line style="stroke: #A80036; stroke-width: 1.5;" x1="214" x2="214" y1="171.9023" y2="191.9023"/><polygon fill="#A80036" points="210,181.9023,214,191.9023,218,181.9023,214,185.9023" style="stroke: #A80036; stroke-width: 1.0;"/><line style="stroke: #A80036; stroke-width: 1.5;" x1="55.5" x2="55.5" y1="227.5703" y2="247.5703"/><polygon fill="#A80036" points="51.5,237.5703,55.5,247.5703,59.5,237.5703,55.5,241.5703" style="stroke: #A80036; stroke-width: 1.0;"/><line style="stroke: #A80036; stroke-width: 1.5;" x1="131" x2="131" y1="227.5703" y2="247.5703"/><polygon fill="#A80036" points="127,237.5703,131,247.5703,135,237.5703,131,241.5703" style="stroke: #A80036; stroke-width: 1.0;"/><line style="stroke: #A80036; stroke-width: 1.5;" x1="214" x2="214" y1="227.5703" y2="247.5703"/><polygon fill="#A80036" points="210,237.5703,214,247.5703,218,237.5703,214,241.5703" style="stroke: #A80036; stroke-width: 1.0;"/><line style="stroke: #A80036; stroke-width: 1.5;" x1="138.5" x2="138.5" y1="130.9023" y2="165.9023"/><polygon fill="#A80036" points="134.5,155.9023,138.5,165.9023,142.5,155.9023,138.5,159.9023" style="stroke: #A80036; stroke-width: 1.0;"/><line style="stroke: #A80036; stroke-width: 1.5;" x1="138.5" x2="138.5" y1="253.5703" y2="288.5703"/><polygon fill="#A80036" points="134.5,278.5703,138.5,288.5703,142.5,278.5703,138.5,282.5703" style="stroke: #A80036; stroke-width: 1.0;"/><line style="stroke: #A80036; stroke-width: 1.5;" x1="138.5" x2="138.5" y1="323.6641" y2="345.248"/><polygon fill="#A80036" points="134.5,335.248,138.5,345.248,142.5,335.248,138.5,339.248" style="stroke: #A80036; stroke-width: 1.0;"/><line style="stroke: #A80036; stroke-width: 1.5;" x1="138.5" x2="138.5" y1="37.6406" y2="54.2246"/><polygon fill="#A80036" points="134.5,44.2246,138.5,54.2246,142.5,44.2246,138.5,48.2246" style="stroke: #A80036; stroke-width: 1.0;"/><line style="stroke: #A80036; stroke-width: 1.5;" x1="461.5" x2="461.5" y1="214.3184" y2="239.2363"/><polygon fill="#A80036" points="457.5,229.2363,461.5,239.2363,465.5,229.2363,461.5,233.2363" style="stroke: #A80036; stroke-width: 1.0;"/><line style="stroke: #A80036; stroke-width: 1.5;" x1="521" x2="541" y1="202.3184" y2="202.3184"/><polygon fill="#A80036" points="531,198.3184,541,202.3184,531,206.3184,535,202.3184" style="stroke: #A80036; stroke-width: 1.0;"/><line style="stroke: #A80036; stroke-width: 1.5;" x1="461.5" x2="461.5" y1="274.3301" y2="319.248"/><polygon fill="#A80036" points="457.5,309.248,461.5,319.248,465.5,309.248,461.5,313.248" style="stroke: #A80036; stroke-width: 1.0;"/><line style="stroke: #A80036; stroke-width: 1.5;" x1="461.5" x2="461.5" y1="155.3184" y2="190.3184"/><polygon fill="#A80036" points="457.5,180.3184,461.5,190.3184,465.5,180.3184,461.5,184.3184" style="stroke: #A80036; stroke-width: 1.0;"/><line style="stroke: #A80036; stroke-width: 1.5;" x1="461.5" x2="461.5" y1="100.2246" y2="120.2246"/><polygon fill="#A80036" points="457.5,110.2246,461.5,120.2246,465.5,110.2246,461.5,114.2246" style="stroke: #A80036; stroke-width: 1.0;"/><line style="stroke: #A80036; stroke-width: 1.5;" x1="487.5" x2="487.5" y1="72.6406" y2="94.2246"/><polygon fill="#A80036" points="483.5,84.2246,487.5,94.2246,491.5,84.2246,487.5,88.2246" style="stroke: #A80036; stroke-width: 1.0;"/><line style="stroke: #A80036; stroke-width: 1.5;" x1="487.5" x2="487.5" y1="325.248" y2="346.832"/><polygon fill="#A80036" points="483.5,336.832,487.5,346.832,491.5,336.832,487.5,340.832" style="stroke: #A80036; stroke-width: 1.0;"/><line style="stroke: #A80036; stroke-width: 1.5;" x1="649.5" x2="649.5" y1="157.1895" y2="192.1895"/><polygon fill="#A80036" points="645.5,182.1895,649.5,192.1895,653.5,182.1895,649.5,186.1895" style="stroke: #A80036; stroke-width: 1.0;"/><line style="stroke: #A80036; stroke-width: 1.5;" x1="649.5" x2="649.5" y1="227.2832" y2="262.2832"/><polygon fill="#A80036" points="645.5,252.2832,649.5,262.2832,653.5,252.2832,649.5,256.2832" style="stroke: #A80036; stroke-width: 1.0;"/><line style="stroke: #A80036; stroke-width: 1.5;" x1="808.25" x2="808.25" y1="199.6895" y2="219.6895"/><polygon fill="#A80036" points="804.25,209.6895,808.25,219.6895,812.25,209.6895,808.25,213.6895" style="stroke: #A80036; stroke-width: 1.0;"/><line style="stroke: #A80036; stroke-width: 1.5;" x1="908.25" x2="908.25" y1="199.6895" y2="219.6895"/><polygon fill="#A80036" points="904.25,209.6895,908.25,219.6895,912.25,209.6895,908.25,213.6895" style="stroke: #A80036; stroke-width: 1.0;"/><line style="stroke: #A80036; stroke-width: 1.5;" x1="962.25" x2="962.25" y1="199.6895" y2="274.7832"/><polygon fill="#A80036" points="958.25,264.7832,962.25,274.7832,966.25,264.7832,962.25,268.7832" style="stroke: #A80036; stroke-width: 1.0;"/><line style="stroke: #A80036; stroke-width: 1.5;" x1="808.25" x2="808.25" y1="254.7832" y2="274.7832"/><polygon fill="#A80036" points="804.25,264.7832,808.25,274.7832,812.25,264.7832,808.25,268.7832" style="stroke: #A80036; stroke-width: 1.0;"/><line style="stroke: #A80036; stroke-width: 1.5;" x1="908.25" x2="908.25" y1="254.7832" y2="274.7832"/><polygon fill="#A80036" points="904.25,264.7832,908.25,274.7832,912.25,264.7832,908.25,268.7832" style="stroke: #A80036; stroke-width: 1.0;"/><line style="stroke: #A80036; stroke-width: 1.5;" x1="868.25" x2="868.25" y1="158.6895" y2="193.6895"/><polygon fill="#A80036" points="864.25,183.6895,868.25,193.6895,872.25,183.6895,868.25,187.6895" style="stroke: #A80036; stroke-width: 1.0;"/><line style="stroke: #A80036; stroke-width: 1.5;" x1="868.25" x2="868.25" y1="280.7832" y2="386.832"/><polygon fill="#A80036" points="864.25,376.832,868.25,386.832,872.25,376.832,868.25,380.832" style="stroke: #A80036; stroke-width: 1.0;"/><line style="stroke: #A80036; stroke-width: 1.5;" x1="307.5" x2="307.5" y1="37.6406" y2="37.6406"/><line style="stroke: #A80036; stroke-width: 1.5;" x1="307.5" x2="487.5" y1="37.6406" y2="37.6406"/><line style="stroke: #A80036; stroke-width: 1.5;" x1="487.5" x2="487.5" y1="37.6406" y2="52.6406"/><polygon fill="#A80036" points="483.5,42.6406,487.5,52.6406,491.5,42.6406,487.5,46.6406" style="stroke: #A80036; stroke-width: 1.0;"/><line style="stroke: #A80036; stroke-width: 1.5;" x1="373" x2="373" y1="37.6406" y2="37.6406"/><line style="stroke: #A80036; stroke-width: 1.5;" x1="373" x2="649.5" y1="37.6406" y2="37.6406"/><line style="stroke: #A80036; stroke-width: 1.5;" x1="649.5" x2="649.5" y1="37.6406" y2="137.1895"/><polygon fill="#A80036" points="645.5,127.1895,649.5,137.1895,653.5,127.1895,649.5,131.1895" style="stroke: #A80036; stroke-width: 1.0;"/><line style="stroke: #A80036; stroke-width: 1.5;" x1="373" x2="373" y1="37.6406" y2="37.6406"/><line style="stroke: #A80036; stroke-width: 1.5;" x1="373" x2="868.25" y1="37.6406" y2="37.6406"/><line style="stroke: #A80036; stroke-width: 1.5;" x1="868.25" x2="868.25" y1="37.6406" y2="138.6895"/><polygon fill="#A80036" points="864.25,128.6895,868.25,138.6895,872.25,128.6895,868.25,132.6895" style="stroke: #A80036; stroke-width: 1.0;"/><text fill="#000000" font-family="sans-serif" font-size="18" lengthAdjust="spacingAndGlyphs" textLength="101" x="267" y="31.1406">user-request</text><text fill="#000000" font-family="sans-serif" font-size="18" lengthAdjust="spacingAndGlyphs" textLength="93" x="440.5" y="31.1406">host-accept</text><text fill="#000000" font-family="sans-serif" font-size="18" lengthAdjust="spacingAndGlyphs" textLength="114" x="592" y="31.1406">host-response</text><text fill="#000000" font-family="sans-serif" font-size="18" lengthAdjust="spacingAndGlyphs" textLength="94" x="728" y="31.1406">user-accept</text><line style="stroke: #000000; stroke-width: 2.0;" x1="10" x2="10" y1="12.4551" y2="388.332"/><line style="stroke: #000000; stroke-width: 2.0;" x1="380" x2="380" y1="12.4551" y2="388.332"/><line style="stroke: #000000; stroke-width: 2.0;" x1="582" x2="582" y1="12.4551" y2="388.332"/><line style="stroke: #000000; stroke-width: 2.0;" x1="716" x2="716" y1="12.4551" y2="388.332"/><line style="stroke: #000000; stroke-width: 2.0;" x1="986.25" x2="986.25" y1="12.4551" y2="388.332"/><!--MD5=[f1884d625eca7818d6b1bbba5918fbd4]
@startuml
|#AntiqueWhite|user-request|
split
(A)
: given (x y dlv)}
fork
:[""C-n""]>
fork again
:""draw"";
fork again
:""redraw"";
end fork
:enque call;
(b)
detach
|#LightBlue|host-accept|
split again
(b)
fork
:evaluate rules;
if (properties-changed) then (t)
(A)
detach
else (nil)
:select draw code;
endif
end fork
(c)
detach
|#LightBlue|host-response|
split again
(c)
:enque response;
(D)
detach
|#AntiqueWhite|user-accept|
split again
(D)
fork
:tend cache;
fork again
:finish draw;
fork again
end fork
end split
@enduml

PlantUML version 1.2020.00(Sat Jan 11 06:30:53 CST 2020)
(GPL source distribution)
Java Runtime: Java(TM) SE Runtime Environment
JVM: Java HotSpot(TM) Client VM
Java Version: 1.8.0_241-b07
Operating System: Windows 10
Default Encoding: Cp1252
Language: en
Country: US
--></g></svg>