<?xml version="1.0" encoding="UTF-8" standalone="no"?><svg xmlns="http://www.w3.org/2000/svg" xmlns:xlink="http://www.w3.org/1999/xlink" contentScriptType="application/ecmascript" contentStyleType="text/css" height="493px" preserveAspectRatio="none" style="width:586px;height:493px;" version="1.1" viewBox="0 0 586 493" width="586px" zoomAndPan="magnify"><defs><filter height="300%" id="f1xggxe8rxba7l" width="300%" x="-1" y="-1"><feGaussianBlur result="blurOut" stdDeviation="2.0"/><feColorMatrix in="blurOut" result="blurOut2" type="matrix" values="0 0 0 0 0 0 0 0 0 0 0 0 0 0 0 0 0 0 .4 0"/><feOffset dx="4.0" dy="4.0" in="blurOut2" result="blurOut3"/><feBlend in="SourceGraphic" in2="blurOut3" mode="normal"/></filter></defs><g><text fill="#000000" font-family="sans-serif" font-size="18" lengthAdjust="spacingAndGlyphs" textLength="143" x="220.5" y="28.6855">Server Predicates</text><ellipse cx="430.5" cy="42.6406" fill="#000000" filter="url(#f1xggxe8rxba7l)" rx="10" ry="10" style="stroke: none; stroke-width: 1.0;"/><ellipse cx="430.5" cy="82.6406" fill="#FEFECE" filter="url(#f1xggxe8rxba7l)" rx="10" ry="10" style="stroke: #A80036; stroke-width: 1.5;"/><path d="M431.3594,85.375 Q430.7656,85.875 430.2266,86.0781 Q429.6875,86.2813 429.0625,86.2813 Q428.0313,86.2813 427.4844,85.7813 Q426.9375,85.2813 426.9375,84.5 Q426.9375,84.0469 427.1406,83.6641 Q427.3438,83.2813 427.6875,83.0547 Q428.0313,82.8281 428.4531,82.7188 Q428.75,82.625 429.3906,82.5469 Q430.6563,82.4063 431.2656,82.1875 Q431.2656,81.9688 431.2656,81.9219 Q431.2656,81.2656 430.9688,81 Q430.5625,80.6563 429.7656,80.6563 Q429.0313,80.6563 428.6719,80.9141 Q428.3125,81.1719 428.1406,81.8281 L427.1094,81.6875 Q427.25,81.0313 427.5781,80.625 Q427.9063,80.2188 428.5156,80 Q429.125,79.7813 429.9219,79.7813 Q430.7188,79.7813 431.2188,79.9688 Q431.7188,80.1563 431.9531,80.4375 Q432.1875,80.7188 432.2813,81.1563 Q432.3281,81.4219 432.3281,82.125 L432.3281,83.5313 Q432.3281,85 432.3984,85.3906 Q432.4688,85.7813 432.6719,86.1406 L431.5625,86.1406 Q431.4063,85.8125 431.3594,85.375 Z M431.2656,83.0156 Q430.6875,83.25 429.5469,83.4219 Q428.8906,83.5156 428.625,83.6328 Q428.3594,83.75 428.2109,83.9688 Q428.0625,84.1875 428.0625,84.4688 Q428.0625,84.8906 428.3828,85.1719 Q428.7031,85.4531 429.3125,85.4531 Q429.9219,85.4531 430.3984,85.1875 Q430.875,84.9219 431.0938,84.4531 Q431.2656,84.0938 431.2656,83.4063 L431.2656,83.0156 Z "/><rect fill="#FFFFFF" filter="url(#f1xggxe8rxba7l)" height="339.541" style="stroke: #000000; stroke-width: 2.0;" width="565" x="10" y="103.2168"/><path d="M113,104.2168 L113,113.8262 L103,123.8262 L10,123.8262 " fill="none" style="stroke: #000000; stroke-width: 2.0;"/><text fill="#000000" font-family="sans-serif" font-size="14" lengthAdjust="spacingAndGlyphs" textLength="93" x="13" y="118.75">with-properties</text><path d="M30,260.1406 L30,345.6094 L303,345.6094 L303,270.1406 L293,260.1406 L30,260.1406 " fill="#FBFB77" filter="url(#f1xggxe8rxba7l)" style="stroke: #A80036; stroke-width: 1.0;"/><path d="M293,260.1406 L293,270.1406 L303,270.1406 L293,260.1406 " fill="#FBFB77" style="stroke: #A80036; stroke-width: 1.0;"/><text fill="#000000" font-family="sans-serif" font-size="15" font-style="italic" font-weight="bold" lengthAdjust="spacingAndGlyphs" textLength="252" x="36" y="280.7119">Behaivours can affect movement so</text><text fill="#000000" font-family="sans-serif" font-size="15" font-style="italic" font-weight="bold" lengthAdjust="spacingAndGlyphs" textLength="212" x="36" y="299.5791">the server must evaluate them</text><text fill="#000000" font-family="sans-serif" font-size="15" font-style="italic" font-weight="bold" lengthAdjust="spacingAndGlyphs" textLength="167" x="36" y="318.4463">to see if they do prior to</text><text fill="#000000" font-family="sans-serif" font-size="15" font-style="italic" font-weight="bold" lengthAdjust="spacingAndGlyphs" textLength="218" x="36" y="337.3135">returning drawing instructions.</text><polygon fill="#FEFECE" filter="url(#f1xggxe8rxba7l)" points="341,197.7451,386,197.7451,398,209.7451,386,221.7451,341,221.7451,329,209.7451,341,197.7451" style="stroke: #A80036; stroke-width: 1.5;"/><text fill="#000000" font-family="sans-serif" font-size="11" lengthAdjust="spacingAndGlyphs" textLength="3" x="367.5" y="233.1641">t</text><text fill="#000000" font-family="sans-serif" font-size="11" lengthAdjust="spacingAndGlyphs" textLength="45" x="341" y="214.2461">functionp</text><rect fill="#FEFECE" filter="url(#f1xggxe8rxba7l)" height="35.0938" style="stroke: #A80036; stroke-width: 1.5;" width="49" x="339" y="254.6641"/><line style="stroke: #A80036; stroke-width: 1.5;" x1="344" x2="344" y1="254.6641" y2="289.7578"/><line style="stroke: #A80036; stroke-width: 1.5;" x1="383" x2="383" y1="254.6641" y2="289.7578"/><text fill="#000000" font-family="sans-serif" font-size="12" lengthAdjust="spacingAndGlyphs" textLength="29" x="349" y="277.1211">apply</text><polygon fill="#FEFECE" filter="url(#f1xggxe8rxba7l)" points="430,197.7451,470,197.7451,482,209.7451,470,221.7451,430,221.7451,418,209.7451,430,197.7451" style="stroke: #A80036; stroke-width: 1.5;"/><text fill="#000000" font-family="sans-serif" font-size="11" lengthAdjust="spacingAndGlyphs" textLength="3" x="454" y="233.1641">t</text><text fill="#000000" font-family="sans-serif" font-size="11" lengthAdjust="spacingAndGlyphs" textLength="40" x="430" y="214.2461">symbolp</text><text fill="#000000" font-family="sans-serif" font-size="11" lengthAdjust="spacingAndGlyphs" textLength="10" x="482" y="207.3281">nil</text><rect fill="#FEFECE" filter="url(#f1xggxe8rxba7l)" height="35.0938" style="stroke: #A80036; stroke-width: 1.5;" width="60" x="420" y="254.6641"/><line style="stroke: #A80036; stroke-width: 1.5;" x1="425" x2="425" y1="254.6641" y2="289.7578"/><line style="stroke: #A80036; stroke-width: 1.5;" x1="475" x2="475" y1="254.6641" y2="289.7578"/><text fill="#000000" font-family="sans-serif" font-size="12" lengthAdjust="spacingAndGlyphs" textLength="40" x="430" y="277.1211">resolve</text><polygon fill="#FEFECE" filter="url(#f1xggxe8rxba7l)" points="368,384.7578,493,384.7578,505,396.7578,493,408.7578,368,408.7578,356,396.7578,368,384.7578" style="stroke: #A80036; stroke-width: 1.5;"/><text fill="#000000" font-family="sans-serif" font-size="11" lengthAdjust="spacingAndGlyphs" textLength="125" x="368" y="401.2588">target-map-pos changed?</text><text fill="#000000" font-family="sans-serif" font-size="11" lengthAdjust="spacingAndGlyphs" textLength="3" x="505" y="394.3408">t</text><ellipse cx="535" cy="396.7578" fill="#FEFECE" filter="url(#f1xggxe8rxba7l)" rx="10" ry="10" style="stroke: #A80036; stroke-width: 1.5;"/><path d="M535.8594,399.4922 Q535.2656,399.9922 534.7266,400.1953 Q534.1875,400.3984 533.5625,400.3984 Q532.5313,400.3984 531.9844,399.8984 Q531.4375,399.3984 531.4375,398.6172 Q531.4375,398.1641 531.6406,397.7813 Q531.8438,397.3984 532.1875,397.1719 Q532.5313,396.9453 532.9531,396.8359 Q533.25,396.7422 533.8906,396.6641 Q535.1563,396.5234 535.7656,396.3047 Q535.7656,396.0859 535.7656,396.0391 Q535.7656,395.3828 535.4688,395.1172 Q535.0625,394.7734 534.2656,394.7734 Q533.5313,394.7734 533.1719,395.0313 Q532.8125,395.2891 532.6406,395.9453 L531.6094,395.8047 Q531.75,395.1484 532.0781,394.7422 Q532.4063,394.3359 533.0156,394.1172 Q533.625,393.8984 534.4219,393.8984 Q535.2188,393.8984 535.7188,394.0859 Q536.2188,394.2734 536.4531,394.5547 Q536.6875,394.8359 536.7813,395.2734 Q536.8281,395.5391 536.8281,396.2422 L536.8281,397.6484 Q536.8281,399.1172 536.8984,399.5078 Q536.9688,399.8984 537.1719,400.2578 L536.0625,400.2578 Q535.9063,399.9297 535.8594,399.4922 Z M535.7656,397.1328 Q535.1875,397.3672 534.0469,397.5391 Q533.3906,397.6328 533.125,397.75 Q532.8594,397.8672 532.7109,398.0859 Q532.5625,398.3047 532.5625,398.5859 Q532.5625,399.0078 532.8828,399.2891 Q533.2031,399.5703 533.8125,399.5703 Q534.4219,399.5703 534.8984,399.3047 Q535.375,399.0391 535.5938,398.5703 Q535.7656,398.2109 535.7656,397.5234 L535.7656,397.1328 Z "/><polygon fill="#FEFECE" filter="url(#f1xggxe8rxba7l)" points="395,140.8262,466,140.8262,478,152.8262,466,164.8262,395,164.8262,383,152.8262,395,140.8262" style="stroke: #A80036; stroke-width: 1.5;"/><text fill="#000000" font-family="sans-serif" font-size="11" lengthAdjust="spacingAndGlyphs" textLength="3" x="434.5" y="176.2451">t</text><text fill="#000000" font-family="sans-serif" font-size="11" lengthAdjust="spacingAndGlyphs" textLength="71" x="395" y="157.3271">next property?</text><text fill="#000000" font-family="sans-serif" font-size="11" lengthAdjust="spacingAndGlyphs" textLength="10" x="373" y="150.4092">nil</text><ellipse cx="430.5" cy="472.7578" fill="#FEFECE" filter="url(#f1xggxe8rxba7l)" rx="10" ry="10" style="stroke: #A80036; stroke-width: 1.5;"/><path d="M429.2656,477.2578 L428.2813,477.2578 L428.2813,468.6641 L429.3438,468.6641 L429.3438,471.7266 Q430.0156,470.8984 431.0469,470.8984 Q431.625,470.8984 432.1328,471.125 Q432.6406,471.3516 432.9766,471.7734 Q433.3125,472.1953 433.5,472.7891 Q433.6875,473.3828 433.6875,474.0547 Q433.6875,475.6484 432.8906,476.5234 Q432.0938,477.3984 431,477.3984 Q429.8906,477.3984 429.2656,476.4766 L429.2656,477.2578 Z M429.25,474.1016 Q429.25,475.2109 429.5625,475.7109 Q430.0625,476.5234 430.9063,476.5234 Q431.5938,476.5234 432.1016,475.9297 Q432.6094,475.3359 432.6094,474.1328 Q432.6094,472.9141 432.125,472.3359 Q431.6406,471.7578 430.9531,471.7578 Q430.2656,471.7578 429.7578,472.3594 Q429.25,472.9609 429.25,474.1016 Z "/><line style="stroke: #A80036; stroke-width: 1.5;" x1="430.5" x2="430.5" y1="52.6406" y2="72.6406"/><polygon fill="#A80036" points="426.5,62.6406,430.5,72.6406,434.5,62.6406,430.5,66.6406" style="stroke: #A80036; stroke-width: 1.0;"/><line style="stroke: #A80036; stroke-width: 1.5;" x1="363.5" x2="363.5" y1="221.7451" y2="254.6641"/><polygon fill="#A80036" points="359.5,244.6641,363.5,254.6641,367.5,244.6641,363.5,248.6641" style="stroke: #A80036; stroke-width: 1.0;"/><line style="stroke: #A80036; stroke-width: 1.5;" x1="363.5" x2="363.5" y1="289.7578" y2="364.7578"/><polygon fill="#A80036" points="359.5,354.7578,363.5,364.7578,367.5,354.7578,363.5,358.7578" style="stroke: #A80036; stroke-width: 1.0;"/><line style="stroke: #A80036; stroke-width: 1.5;" x1="450" x2="450" y1="221.7451" y2="254.6641"/><polygon fill="#A80036" points="446,244.6641,450,254.6641,454,244.6641,450,248.6641" style="stroke: #A80036; stroke-width: 1.0;"/><line style="stroke: #A80036; stroke-width: 1.5;" x1="450" x2="450" y1="289.7578" y2="364.7578"/><polygon fill="#A80036" points="446,354.7578,450,364.7578,454,354.7578,450,358.7578" style="stroke: #A80036; stroke-width: 1.0;"/><line style="stroke: #A80036; stroke-width: 1.5;" x1="398" x2="418" y1="209.7451" y2="209.7451"/><polygon fill="#A80036" points="408,205.7451,418,209.7451,408,213.7451,412,209.7451" style="stroke: #A80036; stroke-width: 1.0;"/><line style="stroke: #A80036; stroke-width: 1.5;" x1="430.5" x2="430.5" y1="164.8262" y2="182.7451"/><line style="stroke: #A80036; stroke-width: 1.5;" x1="430.5" x2="363.5" y1="182.7451" y2="182.7451"/><line style="stroke: #A80036; stroke-width: 1.5;" x1="363.5" x2="363.5" y1="182.7451" y2="197.7451"/><polygon fill="#A80036" points="359.5,187.7451,363.5,197.7451,367.5,187.7451,363.5,191.7451" style="stroke: #A80036; stroke-width: 1.0;"/><line style="stroke: #A80036; stroke-width: 1.5;" x1="482" x2="517" y1="209.7451" y2="209.7451"/><line style="stroke: #A80036; stroke-width: 1.5;" x1="517" x2="517" y1="209.7451" y2="364.7578"/><polygon fill="#A80036" points="513,354.7578,517,364.7578,521,354.7578,517,358.7578" style="stroke: #A80036; stroke-width: 1.0;"/><line style="stroke: #A80036; stroke-width: 1.5;" x1="363.5" x2="517" y1="364.7578" y2="364.7578"/><line style="stroke: #A80036; stroke-width: 1.5;" x1="430.5" x2="430.5" y1="408.7578" y2="418.7578"/><line style="stroke: #A80036; stroke-width: 1.5;" x1="430.5" x2="559" y1="418.7578" y2="418.7578"/><polygon fill="#A80036" points="555,312.875,559,302.875,563,312.875,559,308.875" style="stroke: #A80036; stroke-width: 1.5;"/><line style="stroke: #A80036; stroke-width: 1.5;" x1="559" x2="559" y1="152.8262" y2="418.7578"/><line style="stroke: #A80036; stroke-width: 1.5;" x1="559" x2="478" y1="152.8262" y2="152.8262"/><polygon fill="#A80036" points="488,148.8262,478,152.8262,488,156.8262,484,152.8262" style="stroke: #A80036; stroke-width: 1.0;"/><line style="stroke: #A80036; stroke-width: 1.5;" x1="505" x2="525" y1="396.7578" y2="396.7578"/><polygon fill="#A80036" points="515,392.7578,525,396.7578,515,400.7578,519,396.7578" style="stroke: #A80036; stroke-width: 1.0;"/><line style="stroke: #A80036; stroke-width: 1.5;" x1="430.5" x2="430.5" y1="364.7578" y2="384.7578"/><polygon fill="#A80036" points="426.5,374.7578,430.5,384.7578,434.5,374.7578,430.5,378.7578" style="stroke: #A80036; stroke-width: 1.0;"/><line style="stroke: #A80036; stroke-width: 1.5;" x1="383" x2="317" y1="152.8262" y2="152.8262"/><polygon fill="#A80036" points="313,298.875,317,308.875,321,298.875,317,302.875" style="stroke: #A80036; stroke-width: 1.5;"/><line style="stroke: #A80036; stroke-width: 1.5;" x1="317" x2="317" y1="152.8262" y2="430.7578"/><line style="stroke: #A80036; stroke-width: 1.5;" x1="317" x2="430.5" y1="430.7578" y2="430.7578"/><line style="stroke: #A80036; stroke-width: 1.5;" x1="430.5" x2="430.5" y1="430.7578" y2="462.7578"/><polygon fill="#A80036" points="426.5,452.7578,430.5,462.7578,434.5,452.7578,430.5,456.7578" style="stroke: #A80036; stroke-width: 1.0;"/><line style="stroke: #A80036; stroke-width: 1.5;" x1="430.5" x2="430.5" y1="92.6406" y2="140.8262"/><polygon fill="#A80036" points="426.5,130.8262,430.5,140.8262,434.5,130.8262,430.5,134.8262" style="stroke: #A80036; stroke-width: 1.0;"/><!--MD5=[ebab012315904349599d5457aae58765]
@startuml
title Server Predicates

start
  (a)
  partition with-properties {
  floating note left
  === //Behaivours can affect movement so//
  === //the server must evaluate them//
  === //to see if they do prior to //
  === //returning drawing instructions.//
  end note
    while (next property?) is (t)
      if (functionp) then (t)
        :apply|
      elseif (symbolp) then (t)
        :resolve|
      else (nil)
      endif
      if (target-map-pos changed?) then (t)
        (a)
	detach
      endif
    endwhile (nil)
  }
  (b)
  detach
@enduml

PlantUML version 1.2020.00(Sat Jan 11 06:30:53 CST 2020)
(GPL source distribution)
Java Runtime: Java(TM) SE Runtime Environment
JVM: Java HotSpot(TM) Client VM
Java Version: 1.8.0_241-b07
Operating System: Windows 10
Default Encoding: Cp1252
Language: en
Country: US
--></g></svg>