<?xml version="1.0" encoding="UTF-8" standalone="no"?><svg xmlns="http://www.w3.org/2000/svg" xmlns:xlink="http://www.w3.org/1999/xlink" contentScriptType="application/ecmascript" contentStyleType="text/css" height="423px" preserveAspectRatio="none" style="width:369px;height:423px;" version="1.1" viewBox="0 0 369 423" width="369px" zoomAndPan="magnify"><defs><filter height="300%" id="flvq84e2cna4f" width="300%" x="-1" y="-1"><feGaussianBlur result="blurOut" stdDeviation="2.0"/><feColorMatrix in="blurOut" result="blurOut2" type="matrix" values="0 0 0 0 0 0 0 0 0 0 0 0 0 0 0 0 0 0 .4 0"/><feOffset dx="4.0" dy="4.0" in="blurOut2" result="blurOut3"/><feBlend in="SourceGraphic" in2="blurOut3" mode="normal"/></filter></defs><g><text fill="#000000" font-family="sans-serif" font-size="18" lengthAdjust="spacingAndGlyphs" textLength="145" x="111" y="28.6855">Request to Server</text><ellipse cx="184" cy="42.6406" fill="#000000" filter="url(#flvq84e2cna4f)" rx="10" ry="10" style="stroke: none; stroke-width: 1.0;"/><rect fill="#FFFFFF" filter="url(#flvq84e2cna4f)" height="289.4727" style="stroke: #000000; stroke-width: 2.0;" width="348" x="10" y="63.2168"/><path d="M56,64.2168 L56,73.8262 L46,83.8262 L10,83.8262 " fill="none" style="stroke: #000000; stroke-width: 2.0;"/><text fill="#000000" font-family="sans-serif" font-size="14" lengthAdjust="spacingAndGlyphs" textLength="36" x="13" y="78.75">Fetch</text><rect fill="#FEFECE" filter="url(#flvq84e2cna4f)" height="50.7617" rx="12.5" ry="12.5" style="stroke: #A80036; stroke-width: 1.5;" width="142" x="113" y="100.8262"/><text fill="#000000" font-family="sans-serif" font-size="12" lengthAdjust="spacingAndGlyphs" textLength="77" x="123" y="123.2832">INTERACTIVE</text><text fill="#000000" font-family="sans-serif" font-size="12" font-style="italic" lengthAdjust="spacingAndGlyphs" textLength="56" x="123" y="138.9512">As via e.g,</text><text fill="#000000" font-family="monospace" font-size="12" font-style="italic" lengthAdjust="spacingAndGlyphs" textLength="21" x="182" y="137.9844">C-n</text><text fill="#000000" font-family="sans-serif" font-size="12" font-style="italic" lengthAdjust="spacingAndGlyphs" textLength="3" x="203" y="138.9512">,</text><text fill="#000000" font-family="monospace" font-size="12" font-style="italic" lengthAdjust="spacingAndGlyphs" textLength="21" x="209" y="137.9844">C-j</text><text fill="#000000" font-family="sans-serif" font-size="12" font-style="italic" lengthAdjust="spacingAndGlyphs" textLength="15" x="230" y="138.9512">, ...</text><rect fill="#FEFECE" filter="url(#flvq84e2cna4f)" height="66.4297" rx="12.5" ry="12.5" style="stroke: #A80036; stroke-width: 1.5;" width="202" x="83" y="171.5879"/><text fill="#000000" font-family="sans-serif" font-size="12" lengthAdjust="spacingAndGlyphs" textLength="132" x="93" y="194.0449">add to pending-call-alist</text><text fill="#000000" font-family="monospace" font-size="12" lengthAdjust="spacingAndGlyphs" textLength="168" x="107" y="208.7461">( ARGS :WHEN DTTM-STRING</text><text fill="#000000" font-family="monospace" font-size="12" lengthAdjust="spacingAndGlyphs" textLength="91" x="121" y="224.4141">:CONTEXT BOF)</text><rect fill="#FEFECE" filter="url(#flvq84e2cna4f)" height="82.6719" rx="12.5" ry="12.5" style="stroke: #A80036; stroke-width: 1.5;" width="328" x="20" y="258.0176"/><text fill="#000000" font-family="sans-serif" font-size="12" lengthAdjust="spacingAndGlyphs" textLength="106" x="30" y="281.0488">dm-call-server-func</text><text fill="#000000" font-family="monospace" font-size="12" lengthAdjust="spacingAndGlyphs" textLength="28" x="139" y="280.082">draw</text><text fill="#000000" font-family="monospace" font-size="12" lengthAdjust="spacingAndGlyphs" textLength="294" x="44" y="295.75">:SOUTH (1 '[\C-n] dm-map-setup-local-draw)</text><text fill="#000000" font-family="monospace" font-size="12" lengthAdjust="spacingAndGlyphs" textLength="98" x="44" y="311.418">:FROM '(0 0 1)</text><text fill="#000000" font-family="monospace" font-size="12" lengthAdjust="spacingAndGlyphs" textLength="84" x="44" y="327.0859">:TO '(0 1 1)</text><ellipse cx="184" cy="402.7485" fill="#FEFECE" filter="url(#flvq84e2cna4f)" rx="10" ry="10" style="stroke: #A80036; stroke-width: 1.5;"/><path d="M181.375,407.2485 L181.375,398.6548 L184.6094,398.6548 Q185.5938,398.6548 186.1875,398.9204 Q186.7813,399.186 187.1172,399.7251 Q187.4531,400.2642 187.4531,400.8579 Q187.4531,401.4048 187.1563,401.8892 Q186.8594,402.3735 186.25,402.6704 Q187.0313,402.9048 187.4453,403.4595 Q187.8594,404.0142 187.8594,404.7642 Q187.8594,405.3579 187.6094,405.8813 Q187.3594,406.4048 186.9844,406.686 Q186.6094,406.9673 186.0391,407.1079 Q185.4688,407.2485 184.6563,407.2485 L181.375,407.2485 Z M182.5156,402.2642 L184.375,402.2642 Q185.125,402.2642 185.4531,402.1704 Q185.8906,402.0454 186.1094,401.7407 Q186.3281,401.436 186.3281,400.9829 Q186.3281,400.561 186.125,400.2329 Q185.9219,399.9048 185.5391,399.7876 Q185.1563,399.6704 184.2344,399.6704 L182.5156,399.6704 L182.5156,402.2642 Z M182.5156,406.2329 L184.6563,406.2329 Q185.2031,406.2329 185.4219,406.186 Q185.8281,406.1235 186.0859,405.9595 Q186.3438,405.7954 186.5156,405.4829 Q186.6875,405.1704 186.6875,404.7642 Q186.6875,404.2798 186.4453,403.9204 Q186.2031,403.561 185.7656,403.4204 Q185.3281,403.2798 184.5,403.2798 L182.5156,403.2798 L182.5156,406.2329 Z "/><line style="stroke: #A80036; stroke-width: 1.5;" x1="184" x2="184" y1="151.5879" y2="171.5879"/><polygon fill="#A80036" points="180,161.5879,184,171.5879,188,161.5879,184,165.5879" style="stroke: #A80036; stroke-width: 1.0;"/><line style="stroke: #A80036; stroke-width: 1.5;" x1="184" x2="184" y1="238.0176" y2="258.0176"/><polygon fill="#A80036" points="180,248.0176,184,258.0176,188,248.0176,184,252.0176" style="stroke: #A80036; stroke-width: 1.0;"/><line style="stroke: #A80036; stroke-width: 1.5;" x1="184" x2="184" y1="52.6406" y2="100.8262"/><polygon fill="#A80036" points="180,90.8262,184,100.8262,188,90.8262,184,94.8262" style="stroke: #A80036; stroke-width: 1.0;"/><line style="stroke: #0000FF; stroke-width: 1.5;" x1="184" x2="184" y1="340.6895" y2="392.7485"/><polygon fill="#0000FF" points="180,382.7485,184,392.7485,188,382.7485,184,386.7485" style="stroke: #0000FF; stroke-width: 1.0;"/><text fill="#000000" font-family="monospace" font-size="11" lengthAdjust="spacingAndGlyphs" textLength="84" x="188" y="371.2485">REMOTE ASYNC</text><!--MD5=[0e34888fde6aa569ae557d11afa3827a]
@startuml
title Request to Server
start
partition Fetch {
  :INTERACTIVE\n//As via e.g, ""C-n"", ""C-j"", ...//;
  :add to pending-call-alist\n""  ( ARGS :WHEN DTTM-STRING""\n""    :CONTEXT BOF)"";
  :dm-call-server-func ""draw""\n""  :SOUTH (1 '[\C-n] dm-map-setup-local-draw)""\n""  :FROM '(0 0 1)""\n""  :TO '(0 1 1)"";
}
-[#blue]->  ""REMOTE ASYNC"";
(B)
detach
@enduml

PlantUML version 1.2020.00(Sat Jan 11 06:30:53 CST 2020)
(GPL source distribution)
Java Runtime: Java(TM) SE Runtime Environment
JVM: Java HotSpot(TM) Client VM
Java Version: 1.8.0_241-b07
Operating System: Windows 10
Default Encoding: Cp1252
Language: en
Country: US
--></g></svg>