<?xml version="1.0" encoding="UTF-8" standalone="no"?><svg xmlns="http://www.w3.org/2000/svg" xmlns:xlink="http://www.w3.org/1999/xlink" contentScriptType="application/ecmascript" contentStyleType="text/css" height="242px" preserveAspectRatio="none" style="width:276px;height:242px;" version="1.1" viewBox="0 0 276 242" width="276px" zoomAndPan="magnify"><defs><filter height="300%" id="fjj9j7zk4gf31" width="300%" x="-1" y="-1"><feGaussianBlur result="blurOut" stdDeviation="2.0"/><feColorMatrix in="blurOut" result="blurOut2" type="matrix" values="0 0 0 0 0 0 0 0 0 0 0 0 0 0 0 0 0 0 .4 0"/><feOffset dx="4.0" dy="4.0" in="blurOut2" result="blurOut3"/><feBlend in="SourceGraphic" in2="blurOut3" mode="normal"/></filter></defs><g><ellipse cx="137.5" cy="20" fill="#FEFECE" filter="url(#fjj9j7zk4gf31)" rx="10" ry="10" style="stroke: #A80036; stroke-width: 1.5;"/><path d="M136.2656,24.5 L135.2813,24.5 L135.2813,15.9063 L136.3438,15.9063 L136.3438,18.9688 Q137.0156,18.1406 138.0469,18.1406 Q138.625,18.1406 139.1328,18.3672 Q139.6406,18.5938 139.9766,19.0156 Q140.3125,19.4375 140.5,20.0313 Q140.6875,20.625 140.6875,21.2969 Q140.6875,22.8906 139.8906,23.7656 Q139.0938,24.6406 138,24.6406 Q136.8906,24.6406 136.2656,23.7188 L136.2656,24.5 Z M136.25,21.3438 Q136.25,22.4531 136.5625,22.9531 Q137.0625,23.7656 137.9063,23.7656 Q138.5938,23.7656 139.1016,23.1719 Q139.6094,22.5781 139.6094,21.375 Q139.6094,20.1563 139.125,19.5781 Q138.6406,19 137.9531,19 Q137.2656,19 136.7578,19.6016 Q136.25,20.2031 136.25,21.3438 Z "/><rect fill="#FEFECE" filter="url(#fjj9j7zk4gf31)" height="95.4688" rx="12.5" ry="12.5" style="stroke: #A80036; stroke-width: 1.5;" width="255" x="10" y="73.6655"/><text fill="#000000" font-family="sans-serif" font-size="12" lengthAdjust="spacingAndGlyphs" textLength="70" x="20" y="96.1226">validate args</text><text fill="#000000" font-family="sans-serif" font-size="12" font-style="italic" lengthAdjust="spacingAndGlyphs" textLength="39" x="20" y="111.2163">accept:</text><text fill="#000000" font-family="sans-serif" font-size="12" lengthAdjust="spacingAndGlyphs" textLength="157" x="23" y="126.3101">* known symbols (unquoted)</text><text fill="#000000" font-family="sans-serif" font-size="12" lengthAdjust="spacingAndGlyphs" textLength="56" x="23" y="141.4038">*  integers</text><text fill="#000000" font-family="sans-serif" font-size="12" lengthAdjust="spacingAndGlyphs" textLength="232" x="23" y="156.4976">* properly ballanced double quoted strings</text><ellipse cx="137.5" cy="221.3872" fill="#FEFECE" filter="url(#fjj9j7zk4gf31)" rx="10" ry="10" style="stroke: #A80036; stroke-width: 1.5;"/><path d="M139.3594,222.606 L140.3906,222.7466 Q140.2188,223.8091 139.5156,224.4185 Q138.8125,225.0278 137.7969,225.0278 Q136.5156,225.0278 135.7422,224.1919 Q134.9688,223.356 134.9688,221.7935 Q134.9688,220.7935 135.3047,220.0356 Q135.6406,219.2778 136.3203,218.9028 Q137,218.5278 137.8125,218.5278 Q138.8125,218.5278 139.4609,219.0356 Q140.1094,219.5435 140.2969,220.4966 L139.2656,220.6528 Q139.125,220.0278 138.75,219.7075 Q138.375,219.3872 137.8438,219.3872 Q137.0469,219.3872 136.5469,219.9575 Q136.0469,220.5278 136.0469,221.7622 Q136.0469,223.0278 136.5313,223.5903 Q137.0156,224.1528 137.7813,224.1528 Q138.4063,224.1528 138.8203,223.7778 Q139.2344,223.4028 139.3594,222.606 Z "/><line style="stroke: #0000FF; stroke-width: 1.5;" x1="137.5" x2="137.5" y1="30" y2="73.6655"/><polygon fill="#0000FF" points="133.5,63.6655,137.5,73.6655,141.5,63.6655,137.5,67.6655" style="stroke: #0000FF; stroke-width: 1.0;"/><text fill="#000000" font-family="monospace" font-size="11" lengthAdjust="spacingAndGlyphs" textLength="42" x="141.5" y="52.8623">remote</text><line style="stroke: #0000FF; stroke-width: 1.5;" x1="137.5" x2="137.5" y1="169.1343" y2="211.3872"/><polygon fill="#0000FF" points="133.5,201.3872,137.5,211.3872,141.5,201.3872,137.5,205.3872" style="stroke: #0000FF; stroke-width: 1.0;"/><text fill="#000000" font-family="sans-serif" font-size="11" lengthAdjust="spacingAndGlyphs" textLength="82" x="141.5" y="191.4702">remote responds</text><!--MD5=[d4849ac3b2f4eb70fa8ad5b811f47bd9]
@startuml
(b)
-[#blue]-> ""remote"";
:validate args\n//accept://\n * known symbols (unquoted)\n *  integers\n * properly ballanced double quoted strings;
-[#blue]-> remote responds;
(c)
detach
@enduml

PlantUML version 1.2020.00(Sat Jan 11 06:30:53 CST 2020)
(GPL source distribution)
Java Runtime: Java(TM) SE Runtime Environment
JVM: Java HotSpot(TM) Client VM
Java Version: 1.8.0_241-b07
Operating System: Windows 10
Default Encoding: Cp1252
Language: en
Country: US
--></g></svg>