<?xml version="1.0" encoding="UTF-8" standalone="no"?><svg xmlns="http://www.w3.org/2000/svg" xmlns:xlink="http://www.w3.org/1999/xlink" contentScriptType="application/ecmascript" contentStyleType="text/css" height="299px" preserveAspectRatio="none" style="width:306px;height:299px;" version="1.1" viewBox="0 0 306 299" width="306px" zoomAndPan="magnify"><defs><filter height="300%" id="f1wamv9mv7u69a" width="300%" x="-1" y="-1"><feGaussianBlur result="blurOut" stdDeviation="2.0"/><feColorMatrix in="blurOut" result="blurOut2" type="matrix" values="0 0 0 0 0 0 0 0 0 0 0 0 0 0 0 0 0 0 .4 0"/><feOffset dx="4.0" dy="4.0" in="blurOut2" result="blurOut3"/><feBlend in="SourceGraphic" in2="blurOut3" mode="normal"/></filter></defs><g><ellipse cx="152.5" cy="20" fill="#FEFECE" filter="url(#f1wamv9mv7u69a)" rx="10" ry="10" style="stroke: #A80036; stroke-width: 1.5;"/><path d="M149.9219,24.5 L149.9219,15.9063 L152.8906,15.9063 Q153.8906,15.9063 154.4219,16.0313 Q155.1563,16.2031 155.6719,16.6406 Q156.3594,17.2188 156.6953,18.1172 Q157.0313,19.0156 157.0313,20.1563 Q157.0313,21.1406 156.8047,21.8906 Q156.5781,22.6406 156.2188,23.1406 Q155.8594,23.6406 155.4297,23.9219 Q155,24.2031 154.4063,24.3516 Q153.8125,24.5 153.0313,24.5 L149.9219,24.5 Z M151.0625,23.4844 L152.8906,23.4844 Q153.75,23.4844 154.2344,23.3281 Q154.7188,23.1719 155,22.875 Q155.4063,22.4844 155.6328,21.7969 Q155.8594,21.1094 155.8594,20.1406 Q155.8594,18.7969 155.4141,18.0703 Q154.9688,17.3438 154.3438,17.0938 Q153.875,16.9219 152.875,16.9219 L151.0625,16.9219 L151.0625,23.4844 Z "/><rect fill="#FFFFFF" filter="url(#f1wamv9mv7u69a)" height="194.8906" style="stroke: #000000; stroke-width: 2.0;" width="285" x="10" y="53.4482"/><path d="M158,54.4482 L158,64.0576 L148,74.0576 L10,74.0576 " fill="none" style="stroke: #000000; stroke-width: 2.0;"/><text fill="#000000" font-family="sans-serif" font-size="14" lengthAdjust="spacingAndGlyphs" textLength="138" x="13" y="68.9814">dm-map-finish-update</text><rect fill="#FEFECE" filter="url(#f1wamv9mv7u69a)" height="35.0938" rx="12.5" ry="12.5" style="stroke: #A80036; stroke-width: 1.5;" width="144" x="80.5" y="91.0576"/><text fill="#000000" font-family="sans-serif" font-size="12" lengthAdjust="spacingAndGlyphs" textLength="124" x="90.5" y="113.5146">maybe-adjust-viewport</text><rect fill="#FEFECE" filter="url(#f1wamv9mv7u69a)" height="35.0938" rx="12.5" ry="12.5" style="stroke: #A80036; stroke-width: 1.5;" width="265" x="20" y="146.1514"/><text fill="#000000" font-family="sans-serif" font-size="12" lengthAdjust="spacingAndGlyphs" textLength="245" x="30" y="168.6084">maybe-scale-and-update(BOF path features)</text><rect fill="#FEFECE" filter="url(#f1wamv9mv7u69a)" height="35.0938" rx="12.5" ry="12.5" style="stroke: #A80036; stroke-width: 1.5;" width="119" x="93" y="201.2451"/><text fill="#000000" font-family="sans-serif" font-size="12" lengthAdjust="spacingAndGlyphs" textLength="99" x="103" y="223.7021">maybe-save(BOF)</text><ellipse cx="152.5" cy="278.3389" fill="#FFFFFF" filter="url(#f1wamv9mv7u69a)" rx="10" ry="10" style="stroke: #000000; stroke-width: 1.5;"/><line style="stroke: #000000; stroke-width: 2.5;" x1="146.3128" x2="158.6872" y1="272.1517" y2="284.5261"/><line style="stroke: #000000; stroke-width: 2.5;" x1="158.6872" x2="146.3128" y1="272.1517" y2="284.5261"/><line style="stroke: #A80036; stroke-width: 1.5;" x1="152.5" x2="152.5" y1="126.1514" y2="146.1514"/><polygon fill="#A80036" points="148.5,136.1514,152.5,146.1514,156.5,136.1514,152.5,140.1514" style="stroke: #A80036; stroke-width: 1.0;"/><line style="stroke: #A80036; stroke-width: 1.5;" x1="152.5" x2="152.5" y1="181.2451" y2="201.2451"/><polygon fill="#A80036" points="148.5,191.2451,152.5,201.2451,156.5,191.2451,152.5,195.2451" style="stroke: #A80036; stroke-width: 1.0;"/><line style="stroke: #A80036; stroke-width: 1.5;" x1="152.5" x2="152.5" y1="30" y2="91.0576"/><polygon fill="#A80036" points="148.5,81.0576,152.5,91.0576,156.5,81.0576,152.5,85.0576" style="stroke: #A80036; stroke-width: 1.0;"/><text fill="#000000" font-family="sans-serif" font-size="11" lengthAdjust="spacingAndGlyphs" textLength="47" x="156.5" y="52.3359">from local</text><line style="stroke: #A80036; stroke-width: 1.5;" x1="152.5" x2="152.5" y1="236.3389" y2="268.3389"/><polygon fill="#A80036" points="148.5,258.3389,152.5,268.3389,156.5,258.3389,152.5,262.3389" style="stroke: #A80036; stroke-width: 1.0;"/><!--MD5=[351303d20e1ed6d02e0a921c377cc27b]
@startuml
(D)
-> from local;
partition dm-map-finish-update {
  :maybe-adjust-viewport;
  :maybe-scale-and-update(BOF path features);
  :maybe-save(BOF);
}
end
@enduml

PlantUML version 1.2020.00(Sat Jan 11 06:30:53 CST 2020)
(GPL source distribution)
Java Runtime: Java(TM) SE Runtime Environment
JVM: Java HotSpot(TM) Client VM
Java Version: 1.8.0_241-b07
Operating System: Windows 10
Default Encoding: Cp1252
Language: en
Country: US
--></g></svg>