<?xml version="1.0" encoding="UTF-8" standalone="no"?>
<svg width="2400" height="2400" xmlns="http://www.w3.org/2000/svg">

  <!-- Define gradients for the map -->
  <defs>
    <linearGradient id="vert_ramp" x1="0%" y1="0%" x2="0%" y2="100%">
      <stop offset="0%" style="stop-color:white;stop-opacity:0" />
      <stop offset="50%" style="stop-color:yellow;stop-opacity:1" />
    </linearGradient>
  </defs>

  <!-- Background Graph paper -->

  <rect fill="#fffdd0" stroke="none" x="0" y="0" width="100%" height="100%"/>

  <!-- Graph paper horizontal lines -->
  <path d="M 0 0 L 2400 0 M 0 100 L 2400 100 M 0 200 L 2400 200 M 0 300 L 2400 300 M 0 400 L 2400 400 M 0 500 L 2400 500 M 0 600 L 2400 600
	   M 0 700 L 2400 700 M 0 800 L 2400 800 M 0 900 L 2400 900 M 0 1000 L 2400 1000 M 0 1100 L 2400 1100 M 0 1200 L 2400 1200
	   M 0 1300 L 2400 1300 M 0 1400 L 2400 1400 M 0 1500 L 2400 1500 M 0 1600 L 2400 1600 M 0 1700 L 2400 1700 M 0 1800 L 2400 1800
	   M 0 1900 L 2400 1900 M 0 2000 L 2400 2000 M 0 2100 L 2400 2100 M 0 2200 L 2400 2200 M 0 2300 L 2400 2300 M 0 2400 L 2400 2400"
	   fill="none" stroke="blue" stroke-width=".2" />

  <!-- Graph paper Vertical lines -->
  <path d="M 0 0 L 0 2400 M 100 0 L 100 2400 M 200 0 L 200 2400 M 300 0 L 300 2400 M 400 0 L 400 2400 M 500 0 L 500 2400 M 600 0 L 600 2400
           M 700 0 L 700 2400 M 800 0 L 800 2400 M 900 0 L 900 2400 M 1000 0 L 1000 2400 M 1100 0 L 1100 2400 M 1200 0 L 1200 2400 
	   M 1300 0 L 1300 2400 M 1400 0 L 1400 2400 M 1500 0 L 1500 2400 M 1600 0 L 1600 2400 M 1700 0 L 1700 2400 M 1800 0 L 1800 2400
	   M 1900 0 L 1900 2400 M 2000 0 L 2000 2400 M 2100 0 L 2100 2400 M 2200 0 L 2200 2400 M 2300 0 L 2300 2400 M 2400 0 L 2400 2400"
           fill="none" stroke="blue" stroke-width=".2" />


  <!-- Water features -->

  <!-- Pool -->
  <path fill="blue" fill-opacity="1" d="M200,200 h200 a200,200,0,0,1,200,200 v200 a200,200,0,0,1,-200,200
					 h-200 a200,200,0,0,1,-200,-200 v-200 a200,200,0,0,1,200,-200" />

  <!-- River flowing south -->
  <path stroke="none" fill="blue" d="M200,800 h200 v100 h-200 v-100" />
  <path stroke="none" fill="cyan" d="M200,800 m98,20 h4 v50 h5 l-6,10 l-6,-10 h5 v-50" />

  <!-- River flowing south -->
  <path stroke="none" fill="blue" d="M200,900 h200 v100 h-200 v-100" />
  <path stroke="none" fill="cyan" d="M200,900 m98,20 h4 v50 h5 l-6,10 l-6,-10 h5 v-50" />

  <!-- River flowing south -->
  <path stroke="none" fill="blue" d="M200,1000 h200 v100 h-200 v-100" />
  <path stroke="none" fill="cyan" d="M200,1000 m98,20 h4 v50 h5 l-6,10 l-6,-10 h5 v-50" />

  <!-- Beach SW corner -->
  <g fill="blue" stroke="none" font-size="50">
    <path d="M200,1100 a200,200,0,0,0,200,200 v-200 h-200" />
    <text x="185" y="1315">B</text>
  </g>
  
  <!-- River flowing east -->
  <path stroke="none" fill="blue" d="M400,1100 h100 v200 h-100 v-200" />
  <path stroke="none" fill="cyan" d="M400,1100 m75,98 h-50 v2 h50 v5 l10,-6 l-10,-6 v5"	/>

  <!-- River flowing east -->
  <path stroke="none" fill="blue" d="M500,1100 h100 v200 h-100 v-200" />
  <path stroke="none" fill="cyan" d="M500,1100 m75,98 h-50 v2 h50 v5 l10,-6 l-10,-6 v5"	/>

  <!-- River flowing east -->
  <path stroke="none" fill="blue" d="M600,1100 h100 v200 h-100 v-200" />
  <path stroke="none" fill="cyan" d="M600,1100 m75,98 h-50 v2 h50 v5 l10,-6 l-10,-6 v5"	/>

  <!-- River flowing east -->
  <path stroke="none" fill="blue" d="M700,1100 h100 v200 h-100 v-200" />
  <path stroke="none" fill="cyan" d="M700,1100 m75,98 h-50 v2 h50 v5 l10,-6 l-10,-6 v5"	/>

  <!-- River flowing east -->
  <path stroke="none" fill="blue" d="M800,1100 h100 v200 h-100 v-200" />
  <path stroke="none" fill="cyan" d="M800,1100 m75,98 h-50 v2 h50 v5 l10,-6 l-10,-6 v5"	/>

  <!-- River flowing east -->
  <path stroke="none" fill="blue" d="M900,1100 h100 v200 h-100 v-200" />
  <path stroke="none" fill="cyan" d="M900,1100 m75,98 h-50 v2 h50 v5 l10,-6 l-10,-6 v5"	/>

  <!-- Beach SE corner -->
  <g fill="blue" stroke="none" font-size="50">
    <path d="M1000,1100 m0,200 a200,200,0,0,0,200,-200 h-200 v200" />
    <text x="1185" y="1315">B</text>
  </g>
  
  <!-- River flowing north -->
  <path stroke="none" fill="blue" d="M1000,1000 h200 v100 h-200 v-100" />
  <path stroke="none" fill="cyan" d="M1000,1000 m98,80 h2 v-50 h5 l-6,-10 l-6,10 h5 v50" />

  <!-- River flowing north -->
  <path stroke="none" fill="blue" d="M1000,900 h200 v100 h-200 v-100" />
  <path stroke="none" fill="cyan" d="M1000,900 m98,80 h2 v-50 h5 l-6,-10 l-6,10 h5 v50" />

  <!-- River flowing north -->
  <path stroke="none" fill="blue" d="M1000,800 h200 v100 h-200 v-100" />
  <path stroke="none" fill="cyan" d="M1000,800 m98,80 h2 v-50 h5 l-6,-10 l-6,10 h5 v50" />

  <!-- River flowing north -->
  <path stroke="none" fill="blue" d="M1000,700 h200 v100 h-200 v-100" />
  <path stroke="none" fill="cyan" d="M1000,700 m98,80 h2 v-50 h5 l-6,-10 l-6,10 h5 v50" />

  <!-- River flowing north -->
  <path stroke="none" fill="blue" d="M1000,600 h200 v100 h-200 v-100" />
  <path stroke="none" fill="cyan" d="M1000,600 m98,80 h2 v-50 h5 l-6,-10 l-6,10 h5 v50" />

  <!-- Beach NE corner -->
  <g fill="blue" stroke="none" font-size="50">
    <path d="M1000,400 m200,200 a200,200,0,0,0,-200,-200 v200 h200" />
    <text x="1185" y="415">B</text>
  </g>
  
  <!-- River flowing west -->
  <path stroke="none" fill="blue" d="M900,400 h100 v200 h-100 v-200" />
  <path stroke="none" fill="cyan" d="M900,400 m25,98 h50 v2 h-50 v5 l-10,-6 l10,-6 v5"	/>

  <!-- River flowing west -->
  <path stroke="none" fill="blue" d="M800,400 h100 v200 h-100 v-200" />
  <path stroke="none" fill="cyan" d="M800,400 m25,98 h50 v2 h-50 v5 l-10,-6 l10,-6 v5"	/>

  <!-- River flowing west -->
  <path stroke="none" fill="blue" d="M700,400 h100 v200 h-100 v-200" />
  <path stroke="none" fill="cyan" d="M700,400 m25,98 h50 v2 h-50 v5 l-10,-6 l10,-6 v5"	/>

  <!-- River flowing west -->
  <path stroke="none" fill="blue" d="M600,400 h100 v200 h-100 v-200" />
  <path stroke="none" fill="cyan" d="M600,400 m25,98 h50 v2 h-50 v5 l-10,-6 l10,-6 v5"	/>

</svg>
