<?xml version="1.0" encoding="UTF-8" standalone="no"?>

<!-- # Copyright (C) 2020 Corwin Brust, Erik C. Elmshauser, Jon Lincicum, Hope Christiansen -->

<svg width="2400" height="2400" xmlns="http://www.w3.org/2000/svg">

  <!-- Define gradients for the map -->
  <defs>
    <linearGradient id="vert_ramp" x1="0%" y1="0%" x2="0%" y2="100%">
      <stop offset="0%" style="stop-color:white;stop-opacity:0" />
      <stop offset="50%" style="stop-color:yellow;stop-opacity:1" />
    </linearGradient>
  </defs>

  <!-- Background Graph paper -->

  <rect fill="#fffdd0" stroke="none" x="0" y="0" width="100%" height="100%"/>


  <!-- Graph Paper -->
  <g fill="none" stroke="blue" stroke-width=".2">
  
    <!-- Graph paper horizontal lines -->
    <path d="M0,0 h2400 M0,100 h2400 M0,200 h2400 M0,300 h2400 M0,400 h2400 M0,500 h2400 M0,600 h2400 M0,700 h2400 M0,800 h2400 M0,900 h2400 M0,1000 h2400 M0,1100 h2400 M0,1200 h2400 
	     M0,1300 h2400 M0,1400 h2400 M0,1500 h2400 M0,1600 h2400 M0,1700 h2400 M0,1800 h2400 M0,1900 h2400 M0,2000 h2400 M0,2100 h2400 M0,2200 h2400 M0,2300 h2400 M0,2400 h2400" />

    <!-- Graph paper Vertical lines -->
    <path d="M0,0 v2400 M100,0 v2400 M200,0 v2400 M300,0 v2400 M400,0 v2400 M500,0 v2400 M600,0 v2400 M700,0 v2400 M800,0 v2400 M900,0 v2400 M1000,0 v2400 M1100,0 v2400 M1200,0 v2400 
	     M1300,0 v2400 M1400,0 v2400 M1500,0 v2400 M1600,0 v2400 M1700,0 v2400 M1800,0 v2400 M1900,0 v2400 M2000,0 v2400 M2100,0 v2400 M2200,0 v2400 M2300,0 v2400 M2400,0 v2400" />

  </g>

  <path stroke="black" fill="none" stroke-width="1" d="M100,100 h43 a7,7,0,1,1,14,0 a7,7,0,1,1,-14,0 m14,0 h43" />
 
  <path stroke="black" fill="none" stroke-width="1" d="M200,100 l45,45 a5,5,0,1,1,10,10 a5,5,0,1,1,-10,-10 m10,10 l45,45" />
 
  <path stroke="black" fill="none" stroke-width="1" d="M300,100 m0,100 l45,-45 a5,5,0,1,1,10,-10 a5,5,0,1,1,-10,10 m10,-10 l45,-45" />
 
</svg>
